<svg xmlns="http://www.w3.org/2000/svg" width="30" height="32"><path d="m29.859 22.098-8.443-8.505.937-4.615c.242.094.499.144.758.146h.032a2.16 2.16 0 1 0-2.029-1.42l-.005-.015-4.96.605L8.058.161a.53.53 0 0 0-.377-.16.533.533 0 0 0-.373.155L5.795 1.66a.535.535 0 0 0 0 .754l.814.826c-1.143 2.062-1.816 4.522-1.816 7.139 0 4.105 1.656 7.824 4.336 10.525l-.001-.001c.041.04.09.073.143.097l.003.001c-.034.18-.051.364-.052.547v6.187h-6.4a2.67 2.67 0 0 0-2.667 2.667v1.067c0 .295.239.533.533.533h24.533a.533.533 0 0 0 .533-.533v-1.067a2.67 2.67 0 0 0-2.667-2.667h-6.4v-2.742c.915.2 1.968.317 3.047.32h.002a14.784 14.784 0 0 0 7.117-1.822l-.077.039.818.823a.53.53 0 0 0 .377.16.533.533 0 0 0 .373-.155l1.513-1.504a.535.535 0 0 0 0-.754zM22.366 6.233a1.066 1.066 0 1 1 .752 1.822h-.003a1.067 1.067 0 0 1-.747-1.823h-.002zM21.11 9.738l-.598 2.946-1.175-1.182 1.774-1.763zm-.606-.902-1.92 1.909-1.485-1.493 3.405-.415zM23.09 28.8a1.6 1.6 0 0 1 1.6 1.6v.533H1.223V30.4a1.6 1.6 0 0 1 1.6-1.6H23.09zm-7.467-2.133v1.067H10.29v-1.067h5.333zM10.29 25.6v-4.053c0-1.294 1.196-2.347 2.667-2.347s2.667 1.053 2.667 2.347V25.6h-5.333zm6.4-1.696v-2.357c0-1.882-1.675-3.413-3.733-3.413h-.058c-1.353 0-2.54.707-3.213 1.771l-.009.016a13.816 13.816 0 0 1-3.811-9.55c0-2.314.567-4.496 1.569-6.414l-.036.077 18.602 18.708c-1.823.947-3.979 1.502-6.266 1.502-1.079 0-2.129-.124-3.136-.358l.093.018zm11.289-.684L6.922 2.039l.755-.752 7.935 7.98c.004 0 .006.007.01.01l13.115 13.191-.757.752z"/></svg>